<?xml version="1.0" encoding="utf-8"?>
<!-- Generator: Adobe Illustrator 24.3.0, SVG Export Plug-In . SVG Version: 6.00 Build 0)  -->
<svg version="1.1" id="Layer_1" xmlns="http://www.w3.org/2000/svg" xmlns:xlink="http://www.w3.org/1999/xlink" x="0px" y="0px"
	 viewBox="0 0 24 19.98" style="enable-background:new 0 0 24 19.98;" xml:space="preserve">
<style type="text/css">
	.st0{fill-rule:evenodd;clip-rule:evenodd;fill:#FFFFFF;}
</style>
<path class="st0" d="M22.01,13.58h-1.19l2.38-2.38v1.19C23.2,13.04,22.67,13.58,22.01,13.58z M6.06,10.24l6.26-6.26h3.39l-9.07,9.07
	c-0.01,0.01-0.01,0.02-0.02,0.03L6.06,10.24z M6.66,3.98L5.12,5.51l-0.3-1.53H6.66z M23.2,5.54l-8.04,8.04h-3.39l9.6-9.6h1.83V5.54z
	 M1.6,2.38c-0.44,0-0.8-0.36-0.8-0.8s0.36-0.8,0.8-0.8s0.8,0.36,0.8,0.8S2.04,2.38,1.6,2.38z M4.67,3.18l-0.33-2h-1.2
	c-0.18-0.69-0.8-1.2-1.54-1.2C0.72-0.02,0,0.7,0,1.58c0,0.88,0.72,1.6,1.6,1.6c0.74,0,1.37-0.51,1.54-1.2h0.52l0.2,1.2H3.85
	l2.07,10.41c-0.99,0.08-1.81,0.84-1.9,1.79c-0.06,0.56,0.13,1.13,0.51,1.54C4.9,17.34,5.44,17.58,6,17.58h0.8
	c0,1.32,1.08,2.4,2.4,2.4c1.32,0,2.4-1.08,2.4-2.4H16c0,1.32,1.08,2.4,2.4,2.4c1.32,0,2.4-1.08,2.4-2.4h1.6c0.22,0,0.4-0.18,0.4-0.4
	c0-0.22-0.18-0.4-0.4-0.4h-1.74c-0.33-0.93-1.22-1.6-2.26-1.6s-1.93,0.67-2.26,1.6h-4.68c-0.33-0.93-1.22-1.6-2.26-1.6
	s-1.93,0.67-2.26,1.6H6c-0.34,0-0.66-0.15-0.89-0.4c-0.23-0.26-0.34-0.58-0.3-0.93c0.06-0.6,0.62-1.08,1.27-1.08h0.34l8.92,0l4.53,0
	h0l2.15,0c1.1,0,1.99-0.89,1.99-1.99v-9.2L4.67,3.18z"/>
</svg>
